Coordinates
version=1
nRows=22
nColumns=24
inDegrees=yes

Units are S.I. units (second, meters, Newtons, ...)
Angles are in degrees.

endheader
time	pelvis_tilt	pelvis_list	pelvis_rotation	pelvis_tx	pelvis_ty	pelvis_tz	hip_flexion_r	hip_adduction_r	hip_rotation_r	knee_angle_r	ankle_angle_r	subtalar_angle_r	mtp_angle_r	hip_flexion_l	hip_adduction_l	hip_rotation_l	knee_angle_l	ankle_angle_l	subtalar_angle_l	mtp_angle_l	lumbar_extension	lumbar_bending	lumbar_rotation
      0.58100000	      4.61717892	      1.57004748	      8.34485569	     -0.80686743	      0.88210414	      0.31023268	     24.08328308	     -2.38928857	     -7.04244302	     -4.96460641	      9.09651105	     -0.10282407	      1.40993824	    -29.66431041	     -0.84302929	      5.52741732	     -2.87886918	     14.24947130	      1.03295183	     15.78581860	    -11.97979949	     -2.80942798	     -9.04551673
      0.58516667	      4.55166197	      1.51116301	      8.42360254	     -0.80089260	      0.88084934	      0.31061590	     24.37118260	     -2.30319409	     -6.84493760	     -5.77249259	      9.06002544	     -0.48196866	      1.39881605	    -29.71557329	     -1.00662035	      5.36862713	     -3.44020631	     14.33733970	      1.35528746	     15.83178271	    -11.89278991	     -2.67060319	     -9.00271649
      0.58933333	      4.51015823	      1.43170369	      8.51166287	     -0.79485429	      0.87967440	      0.31098793	     24.60344384	     -2.19212055	     -6.70893889	     -6.56201396	      8.87735126	     -0.87866510	      1.39254679	    -29.78943901	     -1.19787700	      5.24553221	     -4.01045695	     14.37578999	      1.59385387	     15.90568364	    -11.80450880	     -2.48744241	     -8.96972081
      0.59350000	      4.48473085	      1.34323321	      8.58510766	     -0.78876588	      0.87854438	      0.31141580	     24.80517341	     -2.05576139	     -6.58122124	     -7.35769950	      8.59692919	     -1.29372976	      1.39701319	    -29.88566691	     -1.39829920	      5.08972930	     -4.56316887	     14.35983126	      1.84031957	     16.04302631	    -11.74577866	     -2.31199197	     -8.92307265
      0.59766667	      4.43994906	      1.23657722	      8.64372865	     -0.78260141	      0.87739903	      0.31188053	     25.02482367	     -1.89170598	     -6.44458124	     -8.18295861	      8.31231544	     -1.74905710	      1.41165719	    -29.96342014	     -1.60484047	      4.96750308	     -5.12671563	     14.30665859	      1.98021260	     16.17479306	    -11.63171401	     -2.09337187	     -8.87964672
      0.60183333	      4.39758630	      1.12515139	      8.70335077	     -0.77641209	      0.87631269	      0.31237568	     25.22457825	     -1.71690960	     -6.33566794	     -8.99770484	      7.88933053	     -2.21580762	      1.43800161	    -30.01986805	     -1.82015607	      4.81395653	     -5.72627082	     14.22492712	      2.16208902	     16.34985696	    -11.53698462	     -1.88971693	     -8.81626476
      0.60600000	      4.36112126	      0.99786329	      8.74704587	     -0.77015863	      0.87525875	      0.31293242	     25.40824104	     -1.51182004	     -6.23249061	     -9.81499229	      7.41102940	     -2.69323773	      1.48010413	    -30.06996375	     -2.04728626	      4.63899154	     -6.36204532	     14.11842388	      2.33795574	     16.56176242	    -11.43604422	     -1.66277362	     -8.74071598
      0.61016667	      4.35484502	      0.85983753	      8.78474732	     -0.76387828	      0.87427099	      0.31352717	     25.55063681	     -1.28187948	     -6.12616822	    -10.63561048	      6.89437709	     -3.25131256	      1.58572934	    -30.14099791	     -2.29172940	      4.41844925	     -7.02130324	     14.03549691	      2.57718783	     16.98083445	    -11.37481961	     -1.42766283	     -8.64289303
      0.61433333	      4.28908838	      0.69761821	      8.81043113	     -0.75751402	      0.87326524	      0.31413005	     25.75154602	     -1.03907940	     -6.09202503	    -11.45520669	      6.28971861	     -3.59222238	      1.64298942	    -30.16556064	     -2.53910995	      4.28333789	     -7.63704147	     13.76746019	      2.62051662	     17.21129827	    -11.22256289	     -1.16417374	     -8.57127812
      0.61850000	      4.22987700	      0.54379229	      8.81860114	     -0.75113955	      0.87229668	      0.31480138	     25.94970164	     -0.78918832	     -6.02266068	    -12.29948966	      5.65026182	     -4.05087239	      1.71292466	    -30.16351788	     -2.77393645	      4.09453159	     -8.32390480	     13.53857854	      2.71007851	     17.47452046	    -11.08505889	     -0.92220671	     -8.46500127
      0.62266667	      4.21108514	      0.37260755	      8.81839128	     -0.74473836	      0.87140715	      0.31551322	     26.10735207	     -0.51362350	     -5.99675037	    -13.15914949	      5.00783908	     -4.50170720	      3.34708329	    -30.16081748	     -3.04302306	      3.74299955	     -9.08953819	     13.30115355	      2.98470203	     22.57951703	    -10.98932322	     -0.65476540	     -8.40721122
      0.62683333	      4.14506540	      0.19726243	      8.80185553	     -0.73829764	      0.87052672	      0.31626049	     26.30647331	     -0.23055242	     -5.94009636	    -14.00873835	      4.32413883	     -4.94887681	      3.33378859	    -30.14125760	     -3.28400704	      3.59689156	     -9.79314387	     12.98797370	      2.94351866	     22.64118366	    -10.82977444	     -0.38693353	     -8.22021264
      0.63100000	      4.06299445	      0.00717943	      8.77901555	     -0.73182149	      0.86968403	      0.31703283	     26.52614411	      0.06017909	     -5.92919210	    -14.87521815	      3.65208355	     -5.23890096	      3.33408735	    -30.07805012	     -3.53792896	      3.41978024	    -10.54209502	     12.60146330	      2.95813730	     22.71481634	    -10.65626824	     -0.10663929	     -8.10464054
      0.63516667	      3.98175154	     -0.16806960	      8.73588642	     -0.72536777	      0.86886770	      0.31787090	     26.76242921	      0.35021002	     -5.86845859	    -15.78804170	      3.01237732	     -5.68337745	      3.36202776	    -29.97703606	     -3.77341435	      3.18259976	    -11.37345676	     12.28358679	      3.05494356	     22.88728729	    -10.47181800	      0.14856560	     -7.92701342
      0.63933333	      3.88155783	     -0.37037637	      8.68649668	     -0.71887146	      0.86808946	      0.31873711	     27.01977016	      0.66097033	     -5.85144872	    -16.70981438	      2.40562480	     -5.97608131	      3.40031473	    -29.83791041	     -4.03121737	      2.95572834	    -12.23155085	     11.87417273	      3.11840612	     23.09259548	    -10.28774381	      0.42531562	     -7.77061122
      0.64350000	      3.78288531	     -0.55283074	      8.62312631	     -0.71238561	      0.86737294	      0.31961561	     27.28431337	      0.95102446	     -5.83364779	    -17.66483415	      1.85533948	     -6.24176987	      3.45943831	    -29.67120998	     -4.26012288	      2.73700896	    -13.14187927	     11.45537169	      3.16406560	     23.38285162	    -10.07585221	      0.69518863	     -7.60426653
      0.64766667	      3.70295230	     -0.76701815	      8.55859284	     -0.70583823	      0.86677266	      0.32048663	     27.51488900	      1.26726103	     -5.86871980	    -18.60651603	      1.37543775	     -6.33790712	      3.48224248	    -29.53119291	     -4.51820051	      2.55442304	    -14.01918400	     10.87098690	      3.09496082	     23.51948655	     -9.88254732	      1.01389976	     -7.50558316
      0.65183333	      3.55485668	     -0.93569922	      8.47203285	     -0.69938040	      0.86608562	      0.32145285	     27.86710765	      1.54154251	     -5.83738952	    -19.65789770	      0.97427226	     -6.59002183	      3.54532400	    -29.24439865	     -4.72076284	      2.34248978	    -15.05111980	     10.45073684	      3.14811853	     23.86533883	     -9.64341428	      1.22632011	     -7.28194680
      0.65600000	      3.42133865	     -1.12774063	      8.38041125	     -0.69287696	      0.86550891	      0.32240530	     28.18601245	      1.83483112	     -5.83964235	    -20.68686953	      0.65079517	     -6.69304647	      3.61810785	    -28.96537146	     -4.94247398	      2.14828038	    -16.07652382	      9.88418679	      3.13978661	     24.30571144	     -9.41077641	      1.48540420	     -7.09971131
      0.66016667	      3.35218674	     -1.36477567	      8.30883047	     -0.68633889	      0.86510766	      0.32333173	     28.40414619	      2.16964370	     -5.90551108	    -21.66088443	      0.39226027	     -6.72866375	      4.32292013	    -28.72683742	     -5.23685448	      1.90422605	    -17.12289266	      9.20604181	      3.08332401	     29.33329366	     -9.23920689	      1.81889467	     -6.95192213
      0.66433333	      3.25140522	     -1.58185991	      8.20365405	     -0.67981166	      0.86472963	      0.32430875	     28.66222352	      2.49786815	     -5.90237844	    -22.66165428	      0.23634938	     -6.75466014	      4.31516063	    -28.44946258	     -5.47694614	      1.74608121	    -18.18332707	      8.50739079	      2.96189123	     29.34839774	     -9.04271543	      2.12148741	     -6.85958648
      0.66850000	      3.12172579	     -1.75459417	      8.09982408	     -0.67335704	      0.86435128	      0.32526849	     28.97344822	      2.76190897	     -5.93115649	    -23.73097227	      0.18526244	     -6.72879183	      4.29903601	    -28.06665793	     -5.67590900	      1.56615213	    -19.38174809	      7.88718214	      2.92979653	     29.41025492	     -8.81000316	      2.35622691	     -6.68912491
